# xmcd
#
# Track frame offsets:
#	150
#	17685
#	31070
#	47410
#	68760
#	90962
#	107920
#	121404
#	140444
#	156227
#
# Disc length: 2298 seconds
#
# Revision: 0
# Processed by: cddbd v1.5.2PL0 Copyright (c) Steve Scherf et al.
# Submitted via: EasyCDDAExtractor 10.2.0.1
#
DISCID=7508f80a
DTITLE=The Guiggeys Plus - Gone Fishing
DYEAR=2007
DGENRE=Gospel
TTITLE0=Gone Fishing
TTITLE1=Going Home To Jesus
TTITLE2=He Is Holding Me
TTITLE3=Let Jesus In Your Heart
TTITLE4=Remind me Lord
TTITLE5=These Wedding Bands
TTITLE6=Leave The Rest To Him
TTITLE7=The Spirit's Willing
TTITLE8=The Rapture
TTITLE9=Wait For Me
EXTD=
EXTT0=
EXTT1=
EXTT2=
EXTT3=
EXTT4=
EXTT5=
EXTT6=
EXTT7=
EXTT8=
EXTT9=
PLAYORDER=
